<svg width="47" height="47" viewBox="0 0 47 47" fill="none" xmlns="http://www.w3.org/2000/svg">
<path d="M38.2781 7.84922H33.9248V6.39812C33.9248 6.01326 33.772 5.64417 33.4998 5.37204C33.2277 5.0999 32.8586 4.94702 32.4737 4.94702C32.0889 4.94702 31.7198 5.0999 31.4477 5.37204C31.1755 5.64417 31.0227 6.01326 31.0227 6.39812V7.84922H16.5117V6.39812C16.5117 6.01326 16.3588 5.64417 16.0867 5.37204C15.8145 5.0999 15.4454 4.94702 15.0606 4.94702C14.6757 4.94702 14.3066 5.0999 14.0345 5.37204C13.7624 5.64417 13.6095 6.01326 13.6095 6.39812V7.84922H9.2562C8.48649 7.84922 7.7483 8.15498 7.20404 8.69925C6.65977 9.24351 6.354 9.9817 6.354 10.7514V39.7733C6.354 40.5431 6.65977 41.2812 7.20404 41.8255C7.7483 42.3698 8.48649 42.6755 9.2562 42.6755H38.2781C39.0478 42.6755 39.786 42.3698 40.3303 41.8255C40.8746 41.2812 41.1803 40.5431 41.1803 39.7733V10.7514C41.1803 9.9817 40.8746 9.24351 40.3303 8.69925C39.786 8.15498 39.0478 7.84922 38.2781 7.84922ZM13.6095 10.7514V12.2025C13.6095 12.5874 13.7624 12.9565 14.0345 13.2286C14.3066 13.5007 14.6757 13.6536 15.0606 13.6536C15.4454 13.6536 15.8145 13.5007 16.0867 13.2286C16.3588 12.9565 16.5117 12.5874 16.5117 12.2025V10.7514H31.0227V12.2025C31.0227 12.5874 31.1755 12.9565 31.4477 13.2286C31.7198 13.5007 32.0889 13.6536 32.4737 13.6536C32.8586 13.6536 33.2277 13.5007 33.4998 13.2286C33.772 12.9565 33.9248 12.5874 33.9248 12.2025V10.7514H38.2781V16.5558H9.2562V10.7514H13.6095ZM38.2781 39.7733H9.2562V19.458H38.2781V39.7733ZM25.9438 25.9879C25.9438 26.4184 25.8162 26.8393 25.577 27.1972C25.3378 27.5552 24.9979 27.8341 24.6001 27.9989C24.2024 28.1636 23.7648 28.2067 23.3425 28.1227C22.9203 28.0388 22.5325 27.8315 22.228 27.527C21.9236 27.2226 21.7163 26.8348 21.6323 26.4126C21.5484 25.9903 21.5915 25.5527 21.7562 25.155C21.921 24.7572 22.1999 24.4173 22.5579 24.1781C22.9158 23.9389 23.3367 23.8113 23.7672 23.8113C24.3444 23.8113 24.8981 24.0406 25.3063 24.4488C25.7145 24.857 25.9438 25.4106 25.9438 25.9879ZM33.9248 25.9879C33.9248 26.4184 33.7972 26.8393 33.558 27.1972C33.3188 27.5552 32.9789 27.8341 32.5812 27.9989C32.1834 28.1636 31.7458 28.2067 31.3236 28.1227C30.9013 28.0388 30.5135 27.8315 30.2091 27.527C29.9047 27.2226 29.6974 26.8348 29.6134 26.4126C29.5294 25.9903 29.5725 25.5527 29.7372 25.155C29.902 24.7572 30.181 24.4173 30.5389 24.1781C30.8969 23.9389 31.3177 23.8113 31.7482 23.8113C32.3255 23.8113 32.8791 24.0406 33.2873 24.4488C33.6955 24.857 33.9248 25.4106 33.9248 25.9879ZM17.9628 33.2434C17.9628 33.6739 17.8351 34.0947 17.5959 34.4527C17.3568 34.8106 17.0168 35.0896 16.6191 35.2544C16.2214 35.4191 15.7837 35.4622 15.3615 35.3782C14.9393 35.2942 14.5514 35.0869 14.247 34.7825C13.9426 34.4781 13.7353 34.0903 13.6513 33.6681C13.5673 33.2458 13.6104 32.8082 13.7752 32.4104C13.9399 32.0127 14.2189 31.6728 14.5769 31.4336C14.9348 31.1944 15.3556 31.0668 15.7861 31.0668C16.3634 31.0668 16.9171 31.2961 17.3253 31.7043C17.7335 32.1125 17.9628 32.6661 17.9628 33.2434ZM25.9438 33.2434C25.9438 33.6739 25.8162 34.0947 25.577 34.4527C25.3378 34.8106 24.9979 35.0896 24.6001 35.2544C24.2024 35.4191 23.7648 35.4622 23.3425 35.3782C22.9203 35.2942 22.5325 35.0869 22.228 34.7825C21.9236 34.4781 21.7163 34.0903 21.6323 33.6681C21.5484 33.2458 21.5915 32.8082 21.7562 32.4104C21.921 32.0127 22.1999 31.6728 22.5579 31.4336C22.9158 31.1944 23.3367 31.0668 23.7672 31.0668C24.3444 31.0668 24.8981 31.2961 25.3063 31.7043C25.7145 32.1125 25.9438 32.6661 25.9438 33.2434ZM33.9248 33.2434C33.9248 33.6739 33.7972 34.0947 33.558 34.4527C33.3188 34.8106 32.9789 35.0896 32.5812 35.2544C32.1834 35.4191 31.7458 35.4622 31.3236 35.3782C30.9013 35.2942 30.5135 35.0869 30.2091 34.7825C29.9047 34.4781 29.6974 34.0903 29.6134 33.6681C29.5294 33.2458 29.5725 32.8082 29.7372 32.4104C29.902 32.0127 30.181 31.6728 30.5389 31.4336C30.8969 31.1944 31.3177 31.0668 31.7482 31.0668C32.3255 31.0668 32.8791 31.2961 33.2873 31.7043C33.6955 32.1125 33.9248 32.6661 33.9248 33.2434Z" fill="white"/>
</svg>
