<svg width="48" height="47" viewBox="0 0 48 47" fill="none" xmlns="http://www.w3.org/2000/svg">
<path d="M44.5576 13.8349C44.3262 13.7109 44.0655 13.652 43.8033 13.6644C43.541 13.6769 43.287 13.7603 43.0684 13.9057L36.6183 18.1973V13.6535C36.6183 12.8838 36.3126 12.1456 35.7683 11.6014C35.224 11.0571 34.4858 10.7513 33.7161 10.7513H4.69419C3.92448 10.7513 3.18629 11.0571 2.64202 11.6014C2.09776 12.1456 1.79199 12.8838 1.79199 13.6535V33.9689C1.79199 34.7386 2.09776 35.4768 2.64202 36.0211C3.18629 36.5653 3.92448 36.8711 4.69419 36.8711H33.7161C34.4858 36.8711 35.224 36.5653 35.7683 36.0211C36.3126 35.4768 36.6183 34.7386 36.6183 33.9689V29.4342L43.0684 33.7349C43.308 33.8905 43.5882 33.9719 43.8738 33.9689C44.2587 33.9689 44.6278 33.816 44.8999 33.5439C45.172 33.2717 45.3249 32.9027 45.3249 32.5178V15.1046C45.3231 14.8435 45.2508 14.5878 45.1158 14.3643C44.9808 14.1409 44.7879 13.958 44.5576 13.8349ZM33.7161 33.9689H4.69419V13.6535H33.7161V33.9689ZM42.4227 29.8061L36.6183 25.9371V21.6854L42.4227 17.8254V29.8061Z" fill="white"/>
</svg>
