<svg width="47" height="47" viewBox="0 0 47 47" fill="none" xmlns="http://www.w3.org/2000/svg">
<path d="M41.0996 23.521C41.0996 23.9058 40.9467 24.2749 40.6746 24.5471C40.4024 24.8192 40.0334 24.9721 39.6485 24.9721H23.6864C23.3016 24.9721 22.9325 24.8192 22.6604 24.5471C22.3882 24.2749 22.2353 23.9058 22.2353 23.521C22.2353 23.1361 22.3882 22.767 22.6604 22.4949C22.9325 22.2228 23.3016 22.0699 23.6864 22.0699H39.6485C40.0334 22.0699 40.4024 22.2228 40.6746 22.4949C40.9467 22.767 41.0996 23.1361 41.0996 23.521ZM23.6864 13.3633H39.6485C40.0334 13.3633 40.4024 13.2104 40.6746 12.9383C40.9467 12.6661 41.0996 12.2971 41.0996 11.9122C41.0996 11.5273 40.9467 11.1583 40.6746 10.8861C40.4024 10.614 40.0334 10.4611 39.6485 10.4611H23.6864C23.3016 10.4611 22.9325 10.614 22.6604 10.8861C22.3882 11.1583 22.2353 11.5273 22.2353 11.9122C22.2353 12.2971 22.3882 12.6661 22.6604 12.9383C22.9325 13.2104 23.3016 13.3633 23.6864 13.3633ZM39.6485 33.6787H23.6864C23.3016 33.6787 22.9325 33.8315 22.6604 34.1037C22.3882 34.3758 22.2353 34.7449 22.2353 35.1298C22.2353 35.5146 22.3882 35.8837 22.6604 36.1558C22.9325 36.428 23.3016 36.5808 23.6864 36.5808H39.6485C40.0334 36.5808 40.4024 36.428 40.6746 36.1558C40.9467 35.8837 41.0996 35.5146 41.0996 35.1298C41.0996 34.7449 40.9467 34.3758 40.6746 34.1037C40.4024 33.8315 40.0334 33.6787 39.6485 33.6787ZM15.4043 7.98336L10.6266 12.7629L8.75102 10.8856C8.47873 10.6133 8.10943 10.4603 7.72436 10.4603C7.3393 10.4603 6.97 10.6133 6.69771 10.8856C6.42543 11.1578 6.27246 11.5271 6.27246 11.9122C6.27246 12.2973 6.42543 12.6666 6.69771 12.9389L9.59991 15.841C9.73468 15.976 9.89471 16.083 10.0709 16.156C10.247 16.229 10.4359 16.2666 10.6266 16.2666C10.8173 16.2666 11.0061 16.229 11.1822 16.156C11.3584 16.083 11.5184 15.976 11.6532 15.841L17.4576 10.0367C17.7299 9.76438 17.8828 9.39508 17.8828 9.01001C17.8828 8.62494 17.7299 8.25564 17.4576 7.98336C17.1853 7.71107 16.816 7.55811 16.4309 7.55811C16.0459 7.55811 15.6766 7.71107 15.4043 7.98336ZM15.4043 19.5921L10.6266 24.3717L8.75102 22.4943C8.47873 22.222 8.10943 22.0691 7.72436 22.0691C7.3393 22.0691 6.97 22.222 6.69771 22.4943C6.42543 22.7666 6.27246 23.1359 6.27246 23.521C6.27246 23.7116 6.31002 23.9004 6.38298 24.0766C6.45595 24.2527 6.56289 24.4128 6.69771 24.5476L9.59991 27.4498C9.73468 27.5847 9.89471 27.6918 10.0709 27.7648C10.247 27.8378 10.4359 27.8754 10.6266 27.8754C10.8173 27.8754 11.0061 27.8378 11.1822 27.7648C11.3584 27.6918 11.5184 27.5847 11.6532 27.4498L17.4576 21.6454C17.7299 21.3732 17.8828 21.0039 17.8828 20.6188C17.8828 20.2337 17.7299 19.8644 17.4576 19.5921C17.1853 19.3198 16.816 19.1669 16.4309 19.1669C16.0459 19.1669 15.6766 19.3198 15.4043 19.5921ZM15.4043 31.2009L10.6266 35.9805L8.75102 34.1031C8.61619 33.9683 8.45614 33.8613 8.27998 33.7884C8.10383 33.7154 7.91503 33.6778 7.72436 33.6778C7.5337 33.6778 7.3449 33.7154 7.16874 33.7884C6.99259 33.8613 6.83254 33.9683 6.69771 34.1031C6.56289 34.2379 6.45595 34.398 6.38298 34.5741C6.31002 34.7503 6.27246 34.9391 6.27246 35.1298C6.27246 35.3204 6.31002 35.5092 6.38298 35.6854C6.45595 35.8615 6.56289 36.0216 6.69771 36.1564L9.59991 39.0586C9.73468 39.1935 9.89471 39.3005 10.0709 39.3736C10.247 39.4466 10.4359 39.4842 10.6266 39.4842C10.8173 39.4842 11.0061 39.4466 11.1822 39.3736C11.3584 39.3005 11.5184 39.1935 11.6532 39.0586L17.4576 33.2542C17.7299 32.9819 17.8828 32.6126 17.8828 32.2276C17.8828 31.8425 17.7299 31.4732 17.4576 31.2009C17.1853 30.9286 16.816 30.7757 16.4309 30.7757C16.0459 30.7757 15.6766 30.9286 15.4043 31.2009Z" fill="white"/>
</svg>
